<svg width="25" height="24" viewBox="0 0 25 24" fill="none" xmlns="http://www.w3.org/2000/svg">
<g clip-path="url(#clip0_774_36368)">
<path d="M10.5 21.798C9.8761 21.6706 9.26429 21.4837 8.67316 21.2388C7.45991 20.7362 6.35752 19.9997 5.42893 19.0711C4.50034 18.1425 3.76375 17.0401 3.2612 15.8268C2.75866 14.6136 2.5 13.3132 2.5 12C2.5 10.6868 2.75866 9.38642 3.2612 8.17317C3.76375 6.95991 4.50035 5.85752 5.42893 4.92893C6.35752 4.00035 7.45991 3.26375 8.67317 2.7612C9.26429 2.51635 9.8761 2.32939 10.5 2.20204L10.5 9.17071C10.8128 9.06015 11.1494 9 11.5 9C11.8506 9 12.1872 9.06015 12.5 9.17071L12.5 0C11.8282 0 11.1593 0.0564043 10.5 0.16784C9.61275 0.317814 8.74307 0.567464 7.9078 0.913445C6.45189 1.5165 5.12902 2.40041 4.01472 3.51472C2.90041 4.62902 2.0165 5.95189 1.41345 7.4078C0.810387 8.8637 0.5 10.4241 0.5 12C0.5 13.5759 0.810387 15.1363 1.41344 16.5922C2.0165 18.0481 2.90041 19.371 4.01472 20.4853C5.12902 21.5996 6.45189 22.4835 7.9078 23.0866C8.74307 23.4325 9.61274 23.6822 10.5 23.8322C11.1593 23.9436 11.8282 24 12.5 24L12.5 14.8293C12.1872 14.9398 11.8506 15 11.5 15C11.1494 15 10.8128 14.9398 10.5 14.8293L10.5 21.798Z" fill="#333333"/>
<path fill-rule="evenodd" clip-rule="evenodd" d="M17.864 2.41421C17.3421 2.93605 17.1774 3.67356 17.3527 4.33966L12.516 9.1764C12.1987 9.06222 11.8566 9 11.5 9C9.84315 9 8.5 10.3431 8.5 12C8.5 13.6569 9.84315 15 11.5 15C11.9632 15 12.4018 14.895 12.7935 14.7076L17.3528 19.2669C17.1774 19.933 17.3415 20.6698 17.864 21.1924C18.6454 21.9737 19.9118 21.973 20.6925 21.1924C21.4731 20.4117 21.4738 19.1453 20.6925 18.364C20.1706 17.8421 19.4331 17.6774 18.767 17.8527L14.2076 13.2934C14.2532 13.1982 14.2938 13.1003 14.3293 13H20.777C21.124 13.595 21.761 14 22.5 14C23.605 14 24.5 13.104 24.5 12C24.5 10.896 23.605 10 22.5 10C21.762 10 21.124 10.405 20.777 11H14.3293C14.2612 10.8072 14.1739 10.6235 14.0697 10.4511L18.7669 5.75387C19.433 5.92923 20.1698 5.76519 20.6924 5.24263C21.4737 4.46128 21.473 3.19485 20.6924 2.41421C19.9117 1.63356 18.6453 1.63285 17.864 2.41421ZM12.5 12C12.5 12.5523 12.0523 13 11.5 13C10.9477 13 10.5 12.5523 10.5 12C10.5 11.4477 10.9477 11 11.5 11C12.0523 11 12.5 11.4477 12.5 12Z" fill="#333333"/>
</g>
<defs>
<clipPath id="clip0_774_36368">
<rect width="24" height="24" fill="white" transform="translate(0.5)"/>
</clipPath>
</defs>
</svg>
