<svg width="25" height="24" viewBox="0 0 25 24" fill="none" xmlns="http://www.w3.org/2000/svg">
<path d="M19.5 8.99902C21.154 8.99902 22.5 7.65302 22.5 5.99902C22.5 4.34502 21.154 2.99902 19.5 2.99902C18.198 2.99902 17.099 3.83702 16.685 4.99902H2.5V6.99902H16.685C17.099 8.16102 18.198 8.99902 19.5 8.99902ZM19.5 4.99902C20.051 4.99902 20.5 5.44802 20.5 5.99902C20.5 6.55202 20.051 6.99902 19.5 6.99902C18.949 6.99902 18.5 6.55202 18.5 5.99902C18.5 5.44802 18.949 4.99902 19.5 4.99902Z" fill="#123058"/>
<path d="M9.5 8.99902C8.198 8.99902 7.099 9.83702 6.685 10.999H2.5V12.999H6.685C7.099 14.161 8.199 14.999 9.5 14.999C10.801 14.999 11.901 14.161 12.315 12.999H22.5V10.999H12.315C11.901 9.83702 10.802 8.99902 9.5 8.99902ZM9.5 12.999C8.949 12.999 8.5 12.552 8.5 11.999C8.5 11.448 8.949 10.999 9.5 10.999C10.051 10.999 10.5 11.448 10.5 11.999C10.5 12.552 10.051 12.999 9.5 12.999Z" fill="#123058"/>
<path d="M19.5 14.999C18.198 14.999 17.099 15.837 16.685 16.999H2.5V18.999H16.685C17.099 20.161 18.199 20.999 19.5 20.999C21.154 20.999 22.5 19.653 22.5 17.999C22.5 16.345 21.154 14.999 19.5 14.999ZM19.5 18.999C18.949 18.999 18.5 18.552 18.5 17.999C18.5 17.448 18.949 16.999 19.5 16.999C20.051 16.999 20.5 17.448 20.5 17.999C20.5 18.552 20.051 18.999 19.5 18.999Z" fill="#123058"/>
</svg>
