<svg width="25" height="24" viewBox="0 0 25 24" fill="none" xmlns="http://www.w3.org/2000/svg">
<path fill-rule="evenodd" clip-rule="evenodd" d="M13.196 1.78199C12.8082 1.406 12.1918 1.406 11.804 1.78199L3.5 9.83175V20C3.5 21.3807 4.61929 22.5 6 22.5H19C20.3807 22.5 21.5 21.3807 21.5 20V9.83175L13.196 1.78199ZM5.5 20V10.6784L12.5 3.89274L19.5 10.6784V20C19.5 20.2761 19.2761 20.5 19 20.5H16.5V12.5H8.5V20.5H6C5.72386 20.5 5.5 20.2761 5.5 20ZM10.5 20.5H14.5V14.5H10.5V20.5Z" fill="#333333"/>
</svg>
