<svg width="25" height="24" viewBox="0 0 25 24" fill="none" xmlns="http://www.w3.org/2000/svg">
<g clip-path="url(#clip0_774_36360)">
<path fill-rule="evenodd" clip-rule="evenodd" d="M6.75444 14.1117C6.2645 13.0678 4.77238 13.0892 4.31254 14.1467L2.41706 18.5059L0.582947 17.7084L2.47843 13.3492C3.62458 10.7133 7.34376 10.66 8.56495 13.262L11.287 19.0617C11.7692 20.0893 13.2308 20.0893 13.713 19.0617L16.4351 13.262C17.6562 10.66 21.3754 10.7133 22.5216 13.3492L24.4171 17.7084L22.5829 18.5059L20.6875 14.1467C20.2276 13.0892 18.7355 13.0678 18.2456 14.1117L15.5236 19.9114C14.3215 22.4727 10.6785 22.4727 9.47645 19.9114L6.75444 14.1117Z" fill="#333333"/>
<path d="M16.793 8L18.207 9.414L22.914 4.707L18.207 0L16.793 1.414L19.086 3.707H7.5V5.707H19.086L16.793 8Z" fill="#333333"/>
<path d="M8.621 1.414L7.207 0L2.5 4.707L7.207 9.414L8.621 8L6.328 5.707H17.914V3.707H6.328L8.621 1.414Z" fill="#333333"/>
</g>
<defs>
<clipPath id="clip0_774_36360">
<rect width="24" height="24" fill="white" transform="translate(0.5)"/>
</clipPath>
</defs>
</svg>
